<?xml version="1.0" encoding="UTF-8"?><svg xmlns="http://www.w3.org/2000/svg" viewBox="0 0 67.21 116.12"><defs><style>.d{fill:#f4acb0;}</style></defs><g id="a"/><g id="b"><g id="c"><path class="d" d="M66.52,34.23c-.65-1.09-1.66-1.89-2.86-2.25l-.55-.17,.49-.29c2.14-1.27,2.86-4.04,1.59-6.18-.45-.78-1.13-1.4-1.95-1.8l-.17-.08,2.04-10.79c.31-1.62-.03-3.27-.97-4.64-.93-1.37-2.34-2.29-3.96-2.6L31.97,.11c-3.35-.63-6.59,1.58-7.22,4.94l-5.07,26.06c-.02,.07-.03,.15-.03,.22v.09l-.06,.07L4.98,48.74c-2.53,3.02-3.5,7.13-2.58,10.97l1.94,22.92v.03L.02,105.57c-.06,.31,0,.62,.17,.88,.18,.25,.45,.43,.76,.48,.17,.03,.35,.03,.52-.01,.43-.12,.76-.47,.85-.92l4.35-23.09c.02-.11,.03-.22,.02-.32l-1.96-23.15c0-.06,0-.1-.02-.16-.8-3.18-.03-6.54,2.06-9.03L23.69,30.28c.69-.82,1.66-1.32,2.72-1.39,1.09-.07,2.11,.27,2.91,.98,1.54,1.38,1.75,3.74,.47,5.37l-12.74,16.16c-.21,.28-.3,.63-.23,.96,.07,.34,.28,.63,.58,.79,.53,.3,5.13,3.05,8.7,8.03,4.94,6.87,5.65,14.6,2.11,22.98-.25,.59,.02,1.27,.62,1.53,.29,.12,.61,.12,.9,.01,.29-.12,.51-.34,.63-.63,.55-1.3,1.01-2.61,1.38-3.91l.06-.22,12.02,2.27-.16,.3c-.51,.95-1.13,1.85-1.83,2.69-2.47,2.98-5.77,4.99-9.81,5.97-.44,.11-.78,.47-.87,.93l-4.08,21.63c-.13,.64,.29,1.25,.93,1.37,.18,.04,.34,.03,.51-.02,.44-.11,.77-.47,.85-.91l3.95-20.92,.15-.04c8.2-2.33,11.61-8.09,12.7-10.47l.07-.14h.16c.58,0,1.12-.07,1.66-.21,2.28-.62,4.04-2.51,4.48-4.84l2.64-13.92c.02-.1,.03-.21,.02-.3v-.16l5.49-3.24c.99-.58,1.7-1.52,1.99-2.64,.28-1.12,.12-2.28-.47-3.27-.39-.68-.97-1.24-1.66-1.61l-.39-.21,2.59-1.53c2.38-1.39,3.18-4.47,1.77-6.85-.49-.85-1.2-1.52-2.06-1.94l-.42-.2,2.71-1.6c1.16-.67,1.97-1.76,2.31-3.05,.33-1.3,.14-2.65-.53-3.8Zm-3.04-7.88c.23,.4,.34,.84,.34,1.27,0,.87-.44,1.72-1.24,2.19l-5.91,3.48c-.4,.24-.83,.36-1.29,.36-.66,0-1.29-.25-1.75-.71-.15-.13-.29-.32-.42-.53-.24-.4-.36-.85-.36-1.29,0-.89,.48-1.72,1.24-2.18l5.92-3.48c.2-.12,.41-.2,.63-.27,.41-.11,.88-.11,1.28,0,.43,.11,.8,.31,1.11,.6,.19,.18,.33,.37,.45,.56ZM27.1,5.24c.24-.91,.79-1.7,1.56-2.23,.65-.44,1.39-.67,2.16-.67,.24,0,.49,.02,.73,.07l28.2,5.32c1.98,.38,3.35,2.24,3.1,4.25l-.03,.26L27.03,5.49l.07-.25Zm23.14,72.88c-.2,1.01-.77,1.89-1.62,2.47-.65,.43-1.39,.66-2.15,.66-.17,0-.34-.02-.51-.04-.07,0-.14-.01-.21-.02l-.57-.12h-.07l-12.8-2.41,.04-.24c.19-1.07,.31-2.12,.36-3.11v-.29l3.01,.56c.17,.04,.35,.03,.52-.01,.43-.12,.76-.47,.84-.92,.12-.63-.3-1.24-.93-1.37l-3.47-.64v-.2c-.05-.71-.13-1.43-.26-2.19l-.06-.35,18.76,3.54-.88,4.68Zm1.32-6.98l-.25-.05-19.55-3.69-.04-.15c-.8-2.63-2.07-5.16-3.77-7.53-2.85-3.94-6.26-6.54-8.03-7.74l-.22-.16,11.92-15.13c2.06-2.6,1.73-6.36-.75-8.56-1.27-1.14-2.91-1.7-4.62-1.58-1.1,.08-2.17,.45-3.07,1.06l-.5,.33,3.91-20.15,35.79,6.76-1.63,8.59-.18,.03c-.15,.02-.29,.05-.44,.09-.4,.1-.78,.26-1.13,.47l-5.92,3.49c-2.15,1.27-2.86,4.05-1.6,6.2,.53,.9,1.38,1.6,2.4,1.97l.49,.18-1.99,1.18c-1.52,.9-2.47,2.56-2.47,4.33,0,.88,.24,1.75,.7,2.53,.48,.82,1.19,1.48,2.06,1.93l.41,.2-2.7,1.59c-1.16,.69-1.98,1.78-2.31,3.07-.11,.43-.16,.86-.16,1.26,0,.88,.24,1.76,.7,2.53,.53,.91,1.32,1.61,2.27,2.03l.44,.2-.41,.24c-2.04,1.21-2.72,3.86-1.51,5.91,.64,1.12,1.81,1.9,3.12,2.08l.26,.04-1.22,6.45Zm8.93-15.11c.31,.53,.4,1.16,.24,1.76-.15,.6-.53,1.1-1.06,1.41l-5.38,3.17c-.34,.22-.75,.33-1.17,.33-.81,0-1.58-.44-2-1.14-.22-.38-.33-.78-.33-1.17,0-.82,.44-1.58,1.14-2.01l5.38-3.17c.16-.1,.36-.18,.58-.24,.35-.1,.77-.11,1.17,0,.61,.15,1.11,.54,1.43,1.07Zm2.35-10.22c.41,.7,.52,1.52,.32,2.31-.21,.79-.7,1.45-1.4,1.86l-7.28,4.3c-.48,.28-1.01,.43-1.55,.43-.25,0-.51-.04-.77-.1-.79-.21-1.46-.7-1.87-1.4-.41-.7-.53-1.53-.32-2.32,.2-.79,.7-1.46,1.4-1.87l7.28-4.29c.71-.41,1.53-.53,2.31-.32,.79,.19,1.46,.69,1.88,1.4Zm2.31-8.28c-.2,.79-.7,1.46-1.4,1.87l-7.27,4.29c-.49,.29-1.03,.42-1.55,.42-1.05,0-2.07-.53-2.64-1.49-.41-.7-.53-1.53-.32-2.32,.2-.79,.7-1.45,1.4-1.87l7.28-4.29c.7-.41,1.52-.53,2.31-.32,.8,.21,1.46,.71,1.87,1.4,.41,.7,.53,1.52,.32,2.31Z"/></g></g></svg>